<?xml version="1.0" encoding="utf-8"?>
<!-- Generator: Adobe Illustrator 13.0.1, SVG Export Plug-In . SVG Version: 6.00 Build 14948)  -->
<!DOCTYPE svg PUBLIC "-//W3C//DTD SVG 1.1//EN" "http://www.w3.org/Graphics/SVG/1.1/DTD/svg11.dtd">
<svg version="1.1" id="Capa_1" xmlns="http://www.w3.org/2000/svg" xmlns:xlink="http://www.w3.org/1999/xlink" x="0px" y="0px"
	 width="1024px" height="1024px" viewBox="0 896 1024 1024" enable-background="new 0 896 1024 1024" xml:space="preserve">
<title>&lt;B&gt; — A1 (black)</title>
<desc>Monograma &lt;B&gt; de Enrique Becerra. Variante negra.</desc>
<g>
	<g>
		<path fill="#0C0A09" d="M113.523,1341.594L7.873,1452.7l105.65,110.608h93.745L101.123,1452.7l106.146-111.106H113.523z
			 M554.959,1332.653c38.39-2.983,63.556-23.745,79.929-46.205c18.146-24.881,26.67-61.239,17.994-101.646
			c-14.8-68.04-69.236-123.231-140.933-127.688c-33.084-2.055-67.947,0-101.648,0c-33.627,0-69.831-3.653-102.485,0
			c-30.716,3.437-48.544,28.372-48.303,62.164c-0.083,60.084,12.178,156.18,18.228,213.375c0,0,162.785,0,191.007,0
			C496.97,1332.653,529.641,1334.62,554.959,1332.653z M618.359,1406.563c-35.491-13.813-93.78-11.57-142.095-11.57h-76.175
			c-24.261,0-55.715-2.313-77.029,0.964c-14.713,2.264-27.906,11.284-32.805,25.07c-7.179,20.209,1.536,57.351,4.372,80.995
			c1.837,14.872,6.013,59.894,8.559,83.886c3.872,35.078,7.001,80.794,9.365,121.492c0.921,15.387-0.603,29.619,3.148,39.532
			c12.726,34.016,50.468,29.89,95.761,29.89h76.173c45.698,0,108.607,4.365,145.578-6.75
			c71.962-21.606,123.035-87.551,120.17-174.522C750.196,1500.408,679.305,1430.381,618.359,1406.563z M912.324,1341.594h-93.745
			L924.723,1452.7l-106.145,110.608h93.745l105.649-110.608L912.324,1341.594z"/>
	</g>
</g>
</svg>
