<svg xmlns="http://www.w3.org/2000/svg" viewBox="0 1040 1024 760" width="1024" height="760"><metadata><rdf:RDF xmlns:rdf="http://www.w3.org/1999/02/22-rdf-syntax-ns#" xmlns:dc="http://purl.org/dc/elements/1.1/"><rdf:Description><dc:creator>ebecerra</dc:creator></rdf:Description></rdf:RDF></metadata><path fill="#00ff88" d="M113.523,1341.594L7.873,1452.7l105.65,110.608h93.745L101.123,1452.7l106.146-111.106H113.523z M554.959,1332.653c38.39-2.983,63.556-23.745,79.929-46.205c18.146-24.881,26.67-61.239,17.994-101.646c-14.8-68.04-69.236-123.231-140.933-127.688c-33.084-2.055-67.947,0-101.648,0c-33.627,0-69.831-3.653-102.485,0c-30.716,3.437-48.544,28.372-48.303,62.164c-0.083,60.084,12.178,156.18,18.228,213.375c0,0,162.785,0,191.007,0C496.97,1332.653,529.641,1334.62,554.959,1332.653z M618.359,1406.563c-35.491-13.813-93.78-11.57-142.095-11.57h-76.175c-24.261,0-55.715-2.313-77.029,0.964c-14.713,2.264-27.906,11.284-32.805,25.07c-7.179,20.209,1.536,57.351,4.372,80.995c1.837,14.872,6.013,59.894,8.559,83.886c3.872,35.078,7.001,80.794,9.365,121.492c0.921,15.387-0.603,29.619,3.148,39.532c12.726,34.016,50.468,29.89,95.761,29.89h76.173c45.698,0,108.607,4.365,145.578-6.75c71.962-21.606,123.035-87.551,120.17-174.522C750.196,1500.408,679.305,1430.381,618.359,1406.563z M912.324,1341.594h-93.745L924.723,1452.7l-106.145,110.608h93.745l105.649-110.608L912.324,1341.594z"/></svg>
